<?xml version="1.0" encoding="UTF-8"?>
<svg width="1280px" height="720px" viewBox="0 0 1280 720" version="1.1" xmlns="http://www.w3.org/2000/svg" xmlns:xlink="http://www.w3.org/1999/xlink">
    <!-- Generator: Sketch 64 (93537) - https://sketch.com -->
    <title>patternName</title>
    <desc>Created with Sketch.</desc>
    <g id="patternName" stroke="none" stroke-width="1" fill="none" fill-rule="evenodd">
        <rect id="bg" fill="#222222" x="0" y="0" width="1280" height="720"></rect>
        <g id="pattern" transform="translate(483.000000, -17.000000)" fill="#FFFFFF" fill-rule="nonzero">
            <g id="zigzagGrid" transform="translate(357.000000, 17.000000)">
                <g id="c5" transform="translate(362.000000, 0.735294)">
                    <polygon id="c5s8" points="0 718 0 698.263284 57 648 57 667.736716"></polygon>
                    <polygon id="c5s7" points="0 555.428571 0 575.171302 57 625.428571 57 605.685841"></polygon>
                    <polygon id="c5s6" points="0 532.857143 0 513.120427 57 462.857143 57 482.593859"></polygon>
                    <polygon id="c5s5" points="0 370.285714 0 390.02243 57 440.285714 57 420.548998"></polygon>
                    <polygon id="c5s4" points="0 347.714286 0 327.97757 57 277.714286 57 297.459379"></polygon>
                    <polygon id="c5s3" points="0 185.142857 0 204.879573 57 255.142857 57 235.406141"></polygon>
                    <polygon id="c5s2" points="0 162.571429 0 142.828698 57 92.5714286 57 112.314159"></polygon>
                    <polygon id="c5s1" points="0 0 0 19.7367161 57 70 57 50.2632839"></polygon>
                </g>
                <g id="c4" transform="translate(271.500000, 0.735294)">
                    <polygon id="c4s8" points="0 718 0 698.263284 57 648 57 667.736716"></polygon>
                    <polygon id="c4s7" points="0 555.428571 0 575.171302 57 625.428571 57 605.685841"></polygon>
                    <polygon id="c4s6" points="0 532.857143 0 513.120427 57 462.857143 57 482.593859"></polygon>
                    <polygon id="c4s5" points="0 370.285714 0 390.02243 57 440.285714 57 420.548998"></polygon>
                    <polygon id="c4s4" points="0 347.714286 0 327.97757 57 277.714286 57 297.459379"></polygon>
                    <polygon id="c4s3" points="0 185.142857 0 204.879573 57 255.142857 57 235.406141"></polygon>
                    <polygon id="c4s2" points="0 162.571429 0 142.828698 57 92.5714286 57 112.314159"></polygon>
                    <polygon id="c4s1" points="0 0 0 19.7367161 57 70 57 50.2632839"></polygon>
                </g>
                <g id="c3" transform="translate(181.000000, 0.735294)">
                    <polygon id="c3s8" points="0 718 0 698.263284 57 648 57 667.736716"></polygon>
                    <polygon id="c3s7" points="0 555.428571 0 575.171302 57 625.428571 57 605.685841"></polygon>
                    <polygon id="c3s6" points="0 532.857143 0 513.120427 57 462.857143 57 482.593859"></polygon>
                    <polygon id="c3s5" points="0 370.285714 0 390.02243 57 440.285714 57 420.548998"></polygon>
                    <polygon id="c3s4" points="0 347.714286 0 327.97757 57 277.714286 57 297.459379"></polygon>
                    <polygon id="c3s3" points="0 185.142857 0 204.879573 57 255.142857 57 235.406141"></polygon>
                    <polygon id="c3s2" points="0 162.571429 0 142.828698 57 92.5714286 57 112.314159"></polygon>
                    <polygon id="c3s1" points="0 0 0 19.7367161 57 70 57 50.2632839"></polygon>
                </g>
                <g id="c2" transform="translate(90.500000, 0.735294)">
                    <polygon id="c2s8" points="0 718 0 698.263284 57 648 57 667.736716"></polygon>
                    <polygon id="c2s7" points="0 555.428571 0 575.171302 57 625.428571 57 605.685841"></polygon>
                    <polygon id="c2s6" points="0 532.857143 0 513.120427 57 462.857143 57 482.593859"></polygon>
                    <polygon id="c2s5" points="0 370.285714 0 390.02243 57 440.285714 57 420.548998"></polygon>
                    <polygon id="c2s4" points="0 347.714286 0 327.97757 57 277.714286 57 297.459379"></polygon>
                    <polygon id="c2s3" points="0 185.142857 0 204.879573 57 255.142857 57 235.406141"></polygon>
                    <polygon id="c2s2" points="0 162.571429 0 142.828698 57 92.5714286 57 112.314159"></polygon>
                    <polygon id="c2s1" points="0 0 0 19.7367161 57 70 57 50.2632839"></polygon>
                </g>
                <g id="c1" transform="translate(0.000000, 0.735294)">
                    <polygon id="c1s8" points="0 718 0 698.263284 57 648 57 667.736716"></polygon>
                    <polygon id="c1s7" points="0 555.428571 0 575.171302 57 625.428571 57 605.685841"></polygon>
                    <polygon id="c1s6" points="0 532.857143 0 513.120427 57 462.857143 57 482.593859"></polygon>
                    <polygon id="c1s5" points="0 370.285714 0 390.02243 57 440.285714 57 420.548998"></polygon>
                    <polygon id="c1s4" points="0 347.714286 0 327.97757 57 277.714286 57 297.459379"></polygon>
                    <polygon id="c1s3" points="0 185.142857 0 204.879573 57 255.142857 57 235.406141"></polygon>
                    <polygon id="c1s2" points="0 162.571429 0 142.828698 57 92.5714286 57 112.314159"></polygon>
                    <polygon id="c1s1" points="0 0 0 19.7367161 57 70 57 50.2632839"></polygon>
                </g>
            </g>
        </g>
    </g>
</svg>