<?xml version="1.0" encoding="UTF-8"?>
<svg width="1280px" height="720px" viewBox="0 0 1280 720" version="1.1" xmlns="http://www.w3.org/2000/svg" xmlns:xlink="http://www.w3.org/1999/xlink">
    <!-- Generator: Sketch 64 (93537) - https://sketch.com -->
    <title>patternName</title>
    <desc>Created with Sketch.</desc>
    <g id="patternName" stroke="none" stroke-width="1" fill="none" fill-rule="evenodd">
        <rect id="bg" fill="#222222" x="0" y="0" width="1280" height="720"></rect>
        <g id="pattern" transform="translate(748.000000, -17.000000)" fill="#FFFFFF" fill-rule="nonzero">
            <g id="slashesGrid" transform="translate(87.000000, 0.000000)">
                <g id="col06" transform="translate(395.000000, 0.000000)">
                    <polygon id="s10" points="0 717 0 738.991087 64 795 64 773.008913"></polygon>
                    <polygon id="s09" points="1 637 1 657.82463 65 714 65 693.163749"></polygon>
                    <polygon id="s08" points="2 557 2 576.402699 66 632 66 612.5858"></polygon>
                    <polygon id="s07" points="3 478 3 496.49283 67 553 67 534.50717"></polygon>
                    <polygon id="s06" points="4 397 4 414.31865 68 471 68 453.68135"></polygon>
                    <polygon id="s05" points="5 318 5 334.132012 69 391 69 374.867988"></polygon>
                    <polygon id="s04" points="6 239 6 253.737826 70 310 70 295.262174"></polygon>
                    <polygon id="s03" points="7 157 7 170.558559 71 227 71 213.45312"></polygon>
                    <polygon id="s02" points="8 79 8 91.1841033 72 147 72 134.815897"></polygon>
                    <polygon id="s01" points="9 0 9 11.1589141 73 68 73 56.8293273"></polygon>
                </g>
                <g id="col05" transform="translate(316.000000, 0.000000)">
                    <polygon id="s10" points="0 717 0 738.991087 64 795 64 773.008913"></polygon>
                    <polygon id="s09" points="1 637 1 657.82463 65 714 65 693.163749"></polygon>
                    <polygon id="s08" points="2 557 2 576.402699 66 632 66 612.5858"></polygon>
                    <polygon id="s07" points="3 478 3 496.49283 67 553 67 534.50717"></polygon>
                    <polygon id="s06" points="4 397 4 414.31865 68 471 68 453.68135"></polygon>
                    <polygon id="s05" points="5 318 5 334.132012 69 391 69 374.867988"></polygon>
                    <polygon id="s04" points="6 239 6 253.737826 70 310 70 295.262174"></polygon>
                    <polygon id="s03" points="7 157 7 170.558559 71 227 71 213.45312"></polygon>
                    <polygon id="s02" points="8 79 8 91.1841033 72 147 72 134.815897"></polygon>
                    <polygon id="s01" points="9 0 9 11.1589141 73 68 73 56.8293273"></polygon>
                </g>
                <g id="col04" transform="translate(237.000000, 0.000000)">
                    <polygon id="s10" points="0 717 0 738.991087 64 795 64 773.008913"></polygon>
                    <polygon id="s09" points="1 637 1 657.82463 65 714 65 693.163749"></polygon>
                    <polygon id="s08" points="2 557 2 576.402699 66 632 66 612.5858"></polygon>
                    <polygon id="s07" points="3 478 3 496.49283 67 553 67 534.50717"></polygon>
                    <polygon id="s06" points="4 397 4 414.31865 68 471 68 453.68135"></polygon>
                    <polygon id="s05" points="5 318 5 334.132012 69 391 69 374.867988"></polygon>
                    <polygon id="s04" points="6 239 6 253.737826 70 310 70 295.262174"></polygon>
                    <polygon id="s03" points="7 157 7 170.558559 71 227 71 213.45312"></polygon>
                    <polygon id="s02" points="8 79 8 91.1841033 72 147 72 134.815897"></polygon>
                    <polygon id="s01" points="9 0 9 11.1589141 73 68 73 56.8293273"></polygon>
                </g>
                <g id="col03" transform="translate(158.000000, 0.000000)">
                    <polygon id="s10" points="0 717 0 738.991087 64 795 64 773.008913"></polygon>
                    <polygon id="s09" points="1 637 1 657.82463 65 714 65 693.163749"></polygon>
                    <polygon id="s08" points="2 557 2 576.402699 66 632 66 612.5858"></polygon>
                    <polygon id="s07" points="3 478 3 496.49283 67 553 67 534.50717"></polygon>
                    <polygon id="s06" points="4 397 4 414.31865 68 471 68 453.68135"></polygon>
                    <polygon id="s05" points="5 318 5 334.132012 69 391 69 374.867988"></polygon>
                    <polygon id="s04" points="6 239 6 253.737826 70 310 70 295.262174"></polygon>
                    <polygon id="s03" points="7 157 7 170.558559 71 227 71 213.45312"></polygon>
                    <polygon id="s02" points="8 79 8 91.1841033 72 147 72 134.815897"></polygon>
                    <polygon id="s01" points="9 0 9 11.1589141 73 68 73 56.8293273"></polygon>
                </g>
                <g id="col02" transform="translate(79.000000, 0.000000)">
                    <polygon id="s10" points="0 717 0 738.991087 64 795 64 773.008913"></polygon>
                    <polygon id="s09" points="1 637 1 657.82463 65 714 65 693.163749"></polygon>
                    <polygon id="s08" points="2 557 2 576.402699 66 632 66 612.5858"></polygon>
                    <polygon id="s07" points="3 478 3 496.49283 67 553 67 534.50717"></polygon>
                    <polygon id="s06" points="4 397 4 414.31865 68 471 68 453.68135"></polygon>
                    <polygon id="s05" points="5 318 5 334.132012 69 391 69 374.867988"></polygon>
                    <polygon id="s04" points="6 239 6 253.737826 70 310 70 295.262174"></polygon>
                    <polygon id="s03" points="7 157 7 170.558559 71 227 71 213.45312"></polygon>
                    <polygon id="s02" points="8 79 8 91.1841033 72 147 72 134.815897"></polygon>
                    <polygon id="s01" points="9 0 9 11.1589141 73 68 73 56.8293273"></polygon>
                </g>
                <g id="col01">
                    <polygon id="s10" points="0 717 0 738.991087 64 795 64 773.008913"></polygon>
                    <polygon id="s09" points="1 637 1 657.82463 65 714 65 693.163749"></polygon>
                    <polygon id="s08" points="2 557 2 576.402699 66 632 66 612.5858"></polygon>
                    <polygon id="s07" points="3 478 3 496.49283 67 553 67 534.50717"></polygon>
                    <polygon id="s06" points="4 397 4 414.31865 68 471 68 453.68135"></polygon>
                    <polygon id="s05" points="5 318 5 334.132012 69 391 69 374.867988"></polygon>
                    <polygon id="s04" points="6 239 6 253.737826 70 310 70 295.262174"></polygon>
                    <polygon id="s03" points="7 157 7 170.558559 71 227 71 213.45312"></polygon>
                    <polygon id="s02" points="8 79 8 91.1841033 72 147 72 134.815897"></polygon>
                    <polygon id="s01" points="9 0 9 11.1589141 73 68 73 56.8293273"></polygon>
                </g>
            </g>
        </g>
    </g>
</svg>